<svg xmlns="http://www.w3.org/2000/svg" viewBox="0 0 32 32">
  <!-- Fond rond indigo -->
  <rect width="32" height="32" rx="7" fill="#6366f1"/>
  <!-- Boussole (compass.svg de PrimeIcons, centré et mis à l'échelle 24→28 dans un carré 32) -->
  <g transform="translate(4, 4) scale(1.1667)">
    <path fill="white" d="M15.94,7.62l-4.88,2a2.63,2.63,0,0,0-1.48,1.48l-2,4.88a.34.34,0,0,0,.19.44.36.36,0,0,0,.25,0l4.88-2a2.63,2.63,0,0,0,1.48-1.48l2-4.88a.34.34,0,0,0-.19-.44A.36.36,0,0,0,15.94,7.62ZM12,13a1,1,0,1,1,1-1A1,1,0,0,1,12,13Z"/>
    <path fill="white" d="M12,21a9,9,0,1,1,9-9A9,9,0,0,1,12,21ZM12,4.5A7.5,7.5,0,1,0,19.5,12,7.5,7.5,0,0,0,12,4.5Z"/>
  </g>
</svg>
